<mxfile host="app.diagrams.net" modified="2021-05-06T09:51:16.331Z" agent="5.0 (X11; Linux x86_64) AppleWebKit/537.36 (KHTML, like Gecko) Chrome/87.0.4280.141 Safari/537.36" etag="mFspproZx_rYpNi307Nb" version="14.6.6" type="github">
  <diagram id="IhDVK5kIIlVH_irtN-wy" name="Page-1">
    <mxGraphModel dx="1115" dy="748" grid="1" gridSize="10" guides="1" tooltips="1" connect="1" arrows="1" fold="1" page="1" pageScale="1" pageWidth="850" pageHeight="1100" background="#283618" math="0" shadow="0">
      <root>
        <mxCell id="0" />
        <mxCell id="1" parent="0" />
      </root>
    </mxGraphModel>
  </diagram>
</mxfile>
